HIERARCHY
ROOT Hips
{
	OFFSET 0.000000 97.167313 0.000000
	CHANNELS 6 Xposition Yposition Zposition Xrotation Yrotation Zrotation
	JOINT Spine
	{
		OFFSET 0.000000 13.784798 0.064400
		CHANNELS 3 Xrotation Yrotation Zrotation
		JOINT Spine1
		{
			OFFSET 0.000000 12.037903 0.404700
			CHANNELS 3 Xrotation Yrotation Zrotation
			JOINT Spine2
			{
				OFFSET 0.000000 17.795601 0.420200
				CHANNELS 3 Xrotation Yrotation Zrotation
				JOINT Neck
				{
					OFFSET 0.000000 39.131302 11.954600
					CHANNELS 3 Xrotation Yrotation Zrotation
					JOINT Head
					{
						OFFSET 0.000000 14.456192 15.627699
						CHANNELS 3 Xrotation Yrotation Zrotation
						JOINT HeadTop_End
						{
							OFFSET 0.000000 15.703506 7.603401
							CHANNELS 3 Xrotation Yrotation Zrotation
							End Site
							{
								OFFSET 0.000000 17.447403 0.000000
							}
						}
					}
				}
				JOINT LeftShoulder
				{
					OFFSET 17.399500 24.608795 1.168800
					CHANNELS 3 Xrotation Yrotation Zrotation
					JOINT LeftArm
					{
						OFFSET 18.980635 5.765305 1.818600
						CHANNELS 3 Xrotation Yrotation Zrotation
						JOINT LeftForeArm
						{
							OFFSET 49.290169 0.000000 0.000000
							CHANNELS 3 Xrotation Yrotation Zrotation
							JOINT LeftHand
							{
								OFFSET 31.562012 0.000000 0.000000
								CHANNELS 3 Xrotation Yrotation Zrotation
								JOINT LeftHandThumb1
								{
									OFFSET 6.133995 -4.388519 7.076070
									CHANNELS 3 Xrotation Yrotation Zrotation
									JOINT LeftHandThumb2
									{
										OFFSET 6.037666 -3.485840 3.485847
										CHANNELS 3 Xrotation Yrotation Zrotation
										JOINT LeftHandThumb3
										{
											OFFSET 6.496506 -3.750763 3.750761
											CHANNELS 3 Xrotation Yrotation Zrotation
											JOINT LeftHandThumb4
											{
												OFFSET 5.616882 -3.242905 3.242910
												CHANNELS 3 Xrotation Yrotation Zrotation
												End Site
												{
													OFFSET -1.254608 7.132141 0.375429
												}
											}
										}
									}
								}
								JOINT LeftHandPinky1
								{
									OFFSET 18.920792 -0.453171 -11.426712
									CHANNELS 3 Xrotation Yrotation Zrotation
									JOINT LeftHandPinky2
									{
										OFFSET 4.919586 0.000000 0.000000
										CHANNELS 3 Xrotation Yrotation Zrotation
										JOINT LeftHandPinky3
										{
											OFFSET 5.233047 0.000000 0.000000
											CHANNELS 3 Xrotation Yrotation Zrotation
											JOINT LeftHandPinky4
											{
												OFFSET 5.571716 0.000000 0.000000
												CHANNELS 3 Xrotation Yrotation Zrotation
												End Site
												{
													OFFSET -3.459808 4.342407 -0.466164
												}
											}
										}
									}
								}
								JOINT LeftHandRing1
								{
									OFFSET 22.726120 -0.094986 -6.500475
									CHANNELS 3 Xrotation Yrotation Zrotation
									JOINT LeftHandRing2
									{
										OFFSET 6.408615 0.000000 0.000000
										CHANNELS 3 Xrotation Yrotation Zrotation
										JOINT LeftHandRing3
										{
											OFFSET 6.150223 0.000000 0.000000
											CHANNELS 3 Xrotation Yrotation Zrotation
											JOINT LeftHandRing4
											{
												OFFSET 6.145386 0.000000 0.000000
												CHANNELS 3 Xrotation Yrotation Zrotation
												End Site
												{
													OFFSET -3.671402 4.923981 -0.202372
												}
											}
										}
									}
								}
								JOINT LeftHandMiddle1
								{
									OFFSET 23.373947 0.000000 0.000001
									CHANNELS 3 Xrotation Yrotation Zrotation
									JOINT LeftHandMiddle2
									{
										OFFSET 6.996567 0.000000 0.000000
										CHANNELS 3 Xrotation Yrotation Zrotation
										JOINT LeftHandMiddle3
										{
											OFFSET 7.015945 0.000000 0.000000
											CHANNELS 3 Xrotation Yrotation Zrotation
											JOINT LeftHandMiddle4
											{
												OFFSET 7.721573 0.000000 0.000000
												CHANNELS 3 Xrotation Yrotation Zrotation
												End Site
												{
													OFFSET -4.651108 6.158463 0.251582
												}
											}
										}
									}
								}
								JOINT LeftHandIndex1
								{
									OFFSET 21.310577 -0.490082 6.209344
									CHANNELS 3 Xrotation Yrotation Zrotation
									JOINT LeftHandIndex2
									{
										OFFSET 7.536453 0.000000 0.000000
										CHANNELS 3 Xrotation Yrotation Zrotation
										JOINT LeftHandIndex3
										{
											OFFSET 7.512344 0.000000 0.000000
											CHANNELS 3 Xrotation Yrotation Zrotation
											JOINT LeftHandIndex4
											{
												OFFSET 10.212402 0.000000 0.000001
												CHANNELS 3 Xrotation Yrotation Zrotation
												End Site
												{
													OFFSET -5.180801 8.690506 1.388433
												}
											}
										}
									}
								}
							}
						}
					}
				}
				JOINT RightShoulder
				{
					OFFSET -17.399500 24.608795 1.168800
					CHANNELS 3 Xrotation Yrotation Zrotation
					JOINT RightArm
					{
						OFFSET -18.980635 5.765305 1.818600
						CHANNELS 3 Xrotation Yrotation Zrotation
						JOINT RightForeArm
						{
							OFFSET -49.290169 0.000000 0.000000
							CHANNELS 3 Xrotation Yrotation Zrotation
							JOINT RightHand
							{
								OFFSET -31.562012 0.000000 0.000000
								CHANNELS 3 Xrotation Yrotation Zrotation
								JOINT RightHandThumb1
								{
									OFFSET -6.133995 -4.388519 7.076070
									CHANNELS 3 Xrotation Yrotation Zrotation
									JOINT RightHandThumb2
									{
										OFFSET -6.037666 -3.485840 3.485847
										CHANNELS 3 Xrotation Yrotation Zrotation
										JOINT RightHandThumb3
										{
											OFFSET -6.496506 -3.750763 3.750761
											CHANNELS 3 Xrotation Yrotation Zrotation
											JOINT RightHandThumb4
											{
												OFFSET -5.616882 -3.242905 3.242910
												CHANNELS 3 Xrotation Yrotation Zrotation
												End Site
												{
													OFFSET 1.254608 7.132141 0.375429
												}
											}
										}
									}
								}
								JOINT RightHandIndex1
								{
									OFFSET -21.310577 -0.490082 6.209344
									CHANNELS 3 Xrotation Yrotation Zrotation
									JOINT RightHandIndex2
									{
										OFFSET -7.536453 0.000000 0.000000
										CHANNELS 3 Xrotation Yrotation Zrotation
										JOINT RightHandIndex3
										{
											OFFSET -7.512344 0.000000 0.000000
											CHANNELS 3 Xrotation Yrotation Zrotation
											JOINT RightHandIndex4
											{
												OFFSET -10.212402 0.000000 0.000001
												CHANNELS 3 Xrotation Yrotation Zrotation
												End Site
												{
													OFFSET 5.180801 8.690506 1.388433
												}
											}
										}
									}
								}
								JOINT RightHandMiddle1
								{
									OFFSET -23.373947 0.000000 0.000001
									CHANNELS 3 Xrotation Yrotation Zrotation
									JOINT RightHandMiddle2
									{
										OFFSET -6.996567 0.000000 0.000000
										CHANNELS 3 Xrotation Yrotation Zrotation
										JOINT RightHandMiddle3
										{
											OFFSET -7.015945 0.000000 0.000000
											CHANNELS 3 Xrotation Yrotation Zrotation
											JOINT RightHandMiddle4
											{
												OFFSET -7.721573 0.000000 0.000000
												CHANNELS 3 Xrotation Yrotation Zrotation
												End Site
												{
													OFFSET 4.651108 6.158463 0.251582
												}
											}
										}
									}
								}
								JOINT RightHandRing1
								{
									OFFSET -22.726120 -0.094986 -6.500475
									CHANNELS 3 Xrotation Yrotation Zrotation
									JOINT RightHandRing2
									{
										OFFSET -6.408615 0.000000 0.000000
										CHANNELS 3 Xrotation Yrotation Zrotation
										JOINT RightHandRing3
										{
											OFFSET -6.150223 0.000000 0.000000
											CHANNELS 3 Xrotation Yrotation Zrotation
											JOINT RightHandRing4
											{
												OFFSET -6.145386 0.000000 0.000000
												CHANNELS 3 Xrotation Yrotation Zrotation
												End Site
												{
													OFFSET 3.671402 4.923981 -0.202372
												}
											}
										}
									}
								}
								JOINT RightHandPinky1
								{
									OFFSET -18.920792 -0.453171 -11.426712
									CHANNELS 3 Xrotation Yrotation Zrotation
									JOINT RightHandPinky2
									{
										OFFSET -4.919586 0.000000 0.000000
										CHANNELS 3 Xrotation Yrotation Zrotation
										JOINT RightHandPinky3
										{
											OFFSET -5.233047 0.000000 0.000000
											CHANNELS 3 Xrotation Yrotation Zrotation
											JOINT RightHandPinky4
											{
												OFFSET -5.571716 0.000000 0.000000
												CHANNELS 3 Xrotation Yrotation Zrotation
												End Site
												{
													OFFSET 3.459808 4.342407 -0.466164
												}
											}
										}
									}
								}
							}
						}
					}
				}
			}
		}
	}
	JOINT LeftUpLeg
	{
		OFFSET 19.899099 -7.885101 -3.429500
		CHANNELS 3 Xrotation Yrotation Zrotation
		JOINT LeftLeg
		{
			OFFSET 1.745560 -36.997807 10.304700
			CHANNELS 3 Xrotation Yrotation Zrotation
			JOINT LeftFoot
			{
				OFFSET -1.745558 -29.803308 -13.615400
				CHANNELS 3 Xrotation Yrotation Zrotation
				JOINT LeftToeBase
				{
					OFFSET 1.181900 -18.539904 15.226099
					CHANNELS 3 Xrotation Yrotation Zrotation
					JOINT LeftToe_End
					{
						OFFSET -0.863701 1.402801 16.534700
						CHANNELS 3 Xrotation Yrotation Zrotation
						End Site
						{
							OFFSET 0.000000 16.616566 0.000000
						}
					}
				}
			}
		}
	}
	JOINT RightUpLeg
	{
		OFFSET -19.899099 -7.885101 -3.429500
		CHANNELS 3 Xrotation Yrotation Zrotation
		JOINT RightLeg
		{
			OFFSET -1.745560 -36.997807 10.304700
			CHANNELS 3 Xrotation Yrotation Zrotation
			JOINT RightFoot
			{
				OFFSET 1.745558 -29.803308 -13.615400
				CHANNELS 3 Xrotation Yrotation Zrotation
				JOINT RightToeBase
				{
					OFFSET -1.181900 -18.539904 15.226099
					CHANNELS 3 Xrotation Yrotation Zrotation
					JOINT RightToe_End
					{
						OFFSET 0.863701 1.402801 16.534700
						CHANNELS 3 Xrotation Yrotation Zrotation
						End Site
						{
							OFFSET 0.000000 16.616566 0.000000
						}
					}
				}
			}
		}
	}
}
MOTION
Frames: 6
Frame Time: 0.033333
-2.256710 58.028625 0.469437 28.496560 -65.694433 24.269604 7.575343 15.528015 -10.351678 7.381178 0.814979 -2.358422 1.900513 -9.803677 6.310886 3.803862 20.895476 5.584626 -16.487201 35.492948 -14.004736 0.000000 -0.000000 -0.000000 1.991297 -12.098133 18.792938 -18.198930 -17.324000 -10.000301 -98.670586 -12.230970 -85.568514 0.955202 0.959193 -2.278481 4.766492 -0.870681 -14.442464 15.360757 11.863983 9.333456 62.733928 -8.126811 4.996969 0.000000 -0.000001 -0.000001 -8.917264 8.211357 -85.458459 -0.044924 -0.069369 -74.254395 -0.011829 -0.061267 -47.938198 0.000002 0.000001 -0.000000 -4.566444 3.816740 -89.020109 -1.108337 -0.674968 -62.568487 -0.094800 1.186183 -72.391187 -0.000000 -0.000000 0.000007 -5.645950 2.147799 -84.253532 -0.065640 -4.904878 -77.108751 1.501268 0.516322 -67.386011 0.000001 -0.000000 0.000009 -3.431654 -7.965606 -79.434246 -0.001460 -4.386406 -67.686567 1.842111 0.652412 -70.059108 0.000000 -0.000000 -0.000001 2.625055 -0.843144 2.936850 -20.614585 -20.828466 48.938739 24.574228 13.105361 1.087196 0.093197 2.109322 -0.424816 24.918388 -21.323362 30.343040 9.041936 8.262104 -18.001790 -16.128802 -19.012376 -12.441856 0.000003 0.000003 0.000003 -0.470284 -2.905443 60.536424 0.012421 4.392555 66.440085 1.919200 -0.429144 59.456687 -0.000001 -0.000003 -0.000001 -0.997823 -0.054665 68.363787 -0.069347 4.897877 84.663555 0.925788 -1.356359 32.457947 -0.000002 -0.000003 -0.000004 1.117618 -4.691307 79.336247 -0.758483 1.151320 74.330592 -0.075730 -1.186048 41.384157 0.000002 -0.000000 -0.000003 -3.584980 0.161079 86.234007 -0.025150 0.055214 54.704573 0.002516 0.034492 27.499383 0.000002 0.000001 0.000002 -63.440949 -13.781874 43.936227 64.131132 -24.929482 -3.863411 -9.330046 7.459443 -26.659427 -0.801254 -3.276660 3.900695 0.000000 -0.000000 0.000000 -24.378321 -20.221853 -65.384376 2.529116 19.083726 3.891240 5.349404 -9.117333 51.270439 -1.605756 4.428075 16.238498 0.000000 0.000000 0.000001 
-2.283787 58.050812 0.439019 28.436656 -65.744662 24.210772 7.580007 15.524830 -10.334518 7.377083 0.809184 -2.362464 1.895033 -9.808807 6.306404 3.821540 20.877628 5.588540 -16.443472 35.490066 -14.100064 -0.000000 0.000000 -0.000000 1.983626 -12.124304 18.740572 -18.148388 -17.273192 -9.988819 -98.680859 -12.242368 -85.540592 0.951411 0.931921 -2.347154 4.766487 -0.870680 -14.442464 15.359091 11.845385 9.342651 62.706334 -8.111971 5.043313 0.000000 -0.000000 0.000000 -8.915208 8.211764 -85.467653 -0.037932 -0.069455 -74.329192 -0.010726 -0.060523 -47.934558 0.000001 0.000002 -0.000002 -4.569797 3.816433 -89.002009 -1.111643 -0.676187 -62.575987 -0.095312 1.185360 -72.379576 -0.000001 -0.000000 0.000005 -5.649098 2.134779 -84.105078 -0.067026 -4.903918 -77.096812 1.500723 0.515647 -67.408674 -0.000000 -0.000001 0.000002 -3.424174 -7.976852 -79.330380 -0.005588 -4.391367 -67.643885 1.841891 0.652129 -70.068425 -0.000000 0.000003 -0.000001 2.619342 -0.833316 2.936559 -20.593002 -20.901999 48.877366 24.670169 13.111095 1.081420 0.085139 2.123737 -0.500925 24.918383 -21.323362 30.343047 9.041937 8.262099 -18.001793 -16.135318 -18.995540 -12.447484 0.000003 -0.000001 0.000001 -0.488902 -2.896670 60.451142 0.012495 4.392549 66.804721 1.919198 -0.429141 59.456687 -0.000002 -0.000003 -0.000001 -0.985057 -0.061330 68.338577 -0.069219 4.899869 84.649601 0.925534 -1.353022 32.443436 -0.000001 -0.000001 -0.000007 1.115124 -4.679271 79.337715 -0.760731 1.149587 74.370692 -0.075871 -1.185952 41.528769 0.000002 -0.000001 -0.000002 -3.570508 0.163536 86.233618 -0.025939 0.059149 54.695653 0.002737 0.034529 27.530589 -0.000002 0.000000 0.000004 -63.317179 -13.752888 44.012820 64.069756 -24.944320 -3.865683 -9.345133 7.473356 -26.697171 -0.801254 -3.276664 3.900695 0.000000 0.000004 0.000000 -24.386243 -20.192904 -65.352275 2.618360 19.148538 3.900598 5.284099 -9.135227 51.203422 -1.605756 4.428075 16.238498 -0.000000 -0.000000 0.000000 
-2.309808 58.049728 0.408522 28.366640 -65.686312 24.126453 7.557533 15.543603 -10.289932 7.363695 0.815913 -2.333278 1.887865 -9.805236 6.336648 3.978564 20.830959 5.440180 -16.494407 35.326958 -14.108520 0.000000 -0.000001 -0.000000 1.976964 -12.145493 18.697776 -18.109203 -17.231111 -9.980990 -98.683550 -12.248973 -85.511844 0.948826 0.910495 -2.397545 4.766492 -0.870680 -14.442467 15.336782 11.806855 9.366323 62.689150 -8.105041 5.068631 0.000000 -0.000000 -0.000001 -8.914396 8.211551 -85.469873 -0.039221 -0.067477 -74.324179 -0.009388 -0.058997 -47.936170 0.000000 0.000002 0.000001 -4.571705 3.815370 -88.938427 -1.107571 -0.674231 -62.629174 -0.096081 1.184522 -72.367753 -0.000000 0.000002 0.000003 -5.649304 2.122923 -83.978774 -0.066879 -4.903304 -77.084982 1.501593 0.514924 -67.421658 0.000001 -0.000001 0.000008 -3.413593 -7.985214 -79.255937 -0.008285 -4.394998 -67.614256 1.842446 0.652870 -70.045004 -0.000000 0.000003 0.000001 2.596752 -1.011145 2.955435 -20.633132 -20.987160 48.670039 24.879630 13.116567 1.044096 0.106995 2.153222 -0.332188 24.918384 -21.323369 30.343040 9.041937 8.262104 -18.001793 -16.146420 -18.939689 -12.467820 0.000001 -0.000002 -0.000000 -0.509092 -2.888219 60.443909 0.012507 4.392557 66.774422 1.919200 -0.429138 59.456687 -0.000003 -0.000003 0.000001 -0.975660 -0.069013 68.414289 -0.065321 4.899392 84.663412 0.925111 -1.348318 32.423738 0.000000 -0.000001 0.000001 1.135780 -4.680829 79.340229 -0.762628 1.147239 74.396592 -0.075969 -1.185866 41.641983 -0.000000 -0.000000 -0.000003 -3.583749 0.162627 86.300041 -0.025924 0.059097 54.696138 0.006979 0.034437 27.647436 -0.000000 0.000003 0.000003 -63.351336 -13.776081 44.002182 64.007806 -24.987084 -3.860653 -9.280422 7.471083 -26.716490 -0.801254 -3.276661 3.900694 0.000000 0.000000 0.000000 -24.332935 -20.230530 -65.335752 2.734517 19.140685 3.901613 5.170838 -9.181618 51.164807 -1.605756 4.428075 16.238498 -0.000000 0.000000 0.000001 
-2.332906 58.027840 0.372478 28.331886 -65.629676 24.083780 7.561695 15.508336 -10.286083 7.362201 0.804787 -2.338805 1.885906 -9.815469 6.330104 3.938247 20.833151 5.434095 -16.482396 35.292475 -14.090604 -0.000000 0.000001 -0.000000 1.972346 -12.158182 18.669994 -18.093113 -17.201881 -9.979046 -98.680838 -12.251876 -85.489148 0.947357 0.904144 -2.421191 4.766490 -0.870681 -14.442464 15.309999 11.767662 9.390609 62.677613 -8.108867 5.083086 0.000000 0.000001 -0.000001 -8.912013 8.212060 -85.481716 -0.046172 -0.069495 -74.275316 -0.007293 -0.055681 -47.950356 0.000000 0.000000 -0.000002 -4.575942 3.815542 -88.932273 -1.104586 -0.676056 -62.660114 -0.095045 1.184507 -72.367726 0.000000 0.000001 0.000002 -5.651257 2.118467 -83.940573 -0.067120 -4.903828 -77.063993 1.501892 0.513664 -67.428625 0.000001 0.000000 0.000004 -3.406305 -7.990764 -79.206678 -0.004207 -4.392441 -67.639650 1.842997 0.653714 -70.019425 0.000000 0.000001 0.000001 2.599244 -0.998577 2.959578 -20.679716 -21.147789 48.545764 25.060044 13.119716 1.008719 0.121668 2.172097 -0.297663 24.918390 -21.323364 30.343047 9.041932 8.262100 -18.001788 -16.155696 -18.894226 -12.484458 -0.000000 -0.000000 -0.000001 -0.517902 -2.886492 60.451170 0.014772 4.391551 66.492595 1.919198 -0.429143 59.456681 -0.000000 -0.000001 0.000001 -0.978337 -0.065283 68.426905 -0.062220 4.898255 84.681867 0.927509 -1.353303 32.439451 0.000001 -0.000001 -0.000001 1.107121 -4.686141 79.300634 -0.762514 1.149511 74.361998 -0.075902 -1.185928 41.574791 -0.000001 0.000003 -0.000005 -3.581752 0.167211 86.271976 -0.026236 0.056650 54.676921 0.008174 0.034425 27.676876 0.000002 0.000000 0.000001 -63.399025 -13.816748 43.999051 63.961156 -25.028521 -3.858845 -9.216528 7.468757 -26.759332 -0.801254 -3.276658 3.900695 0.000000 0.000000 0.000000 -24.308560 -20.222604 -65.342869 2.909701 19.145813 3.907750 5.032255 -9.240884 51.127808 -1.605756 4.428075 16.238495 -0.000000 0.000001 0.000001 
-2.353516 57.985405 0.351449 28.338294 -65.631472 24.081765 7.602538 15.521550 -10.289023 7.384657 0.809265 -2.332142 1.906061 -9.811223 6.337232 3.929338 20.807381 5.427533 -16.617792 35.259492 -14.147357 -0.000000 -0.000001 0.000000 1.971050 -12.159169 18.656074 -18.091537 -17.185424 -9.980986 -98.676979 -12.251881 -85.468971 0.947565 0.904292 -2.419263 4.766491 -0.870680 -14.442466 15.313750 11.773224 9.387203 62.676801 -8.112762 5.079764 0.000000 0.000001 -0.000001 -8.914910 8.209918 -85.462510 -0.049599 -0.068721 -74.266143 -0.003976 -0.050045 -47.981563 -0.000001 0.000002 -0.000002 -4.573133 3.815691 -88.980453 -1.104905 -0.677438 -62.676432 -0.093853 1.184694 -72.370581 -0.000001 0.000001 0.000005 -5.655589 2.124697 -84.025213 -0.067347 -4.904529 -77.040606 1.500360 0.511818 -67.438050 0.000000 -0.000001 0.000009 -3.409400 -7.989539 -79.216083 -0.002083 -4.390955 -67.661964 1.839786 0.649458 -70.140510 -0.000001 0.000003 0.000001 2.598022 -0.991538 2.958466 -20.700746 -21.323733 48.437325 25.272933 13.119665 0.956567 0.089287 2.152517 -0.509335 24.918391 -21.323361 30.343040 9.041937 8.262094 -18.001790 -16.151441 -18.903962 -12.480781 0.000004 -0.000001 -0.000000 -0.488566 -2.907135 60.486277 0.026221 4.386687 66.534655 1.919200 -0.429144 59.456687 -0.000002 -0.000003 -0.000001 -0.992413 -0.060329 68.453378 -0.066446 4.899281 84.670693 0.927538 -1.353905 32.418530 0.000001 0.000001 -0.000004 1.091412 -4.693609 79.289132 -0.763688 1.157682 74.256061 -0.075744 -1.186049 41.417929 -0.000002 0.000000 0.000002 -3.595674 0.163635 86.319644 -0.027509 0.056443 54.637231 0.004468 0.034499 27.586429 -0.000000 -0.000001 0.000007 -63.394626 -13.869572 44.050079 63.982692 -25.067334 -3.865730 -9.227090 7.490611 -26.799748 -0.801254 -3.276659 3.900695 0.000000 0.000001 0.000000 -24.328476 -20.164395 -65.359521 3.070893 19.192413 3.918287 4.924600 -9.287506 51.105125 -1.605756 4.428075 16.238496 -0.000000 0.000000 0.000001 
-2.371973 57.925232 0.353512 28.331954 -65.615059 24.085737 7.624904 15.459643 -10.305846 7.392115 0.789373 -2.354830 1.906514 -9.828488 6.312427 3.805260 20.845790 5.494206 -16.663254 35.354702 -14.111791 0.000000 0.000000 -0.000000 1.969886 -12.159067 18.652990 -18.096335 -17.180745 -9.985769 -98.673400 -12.246932 -85.449881 0.949476 0.904341 -2.400401 4.766490 -0.870679 -14.442467 15.330368 11.799130 9.371644 62.695167 -8.115977 5.054105 0.000000 0.000001 0.000000 -8.925217 8.204077 -85.399652 -0.048078 -0.068969 -74.335046 -0.005471 -0.052835 -47.965065 -0.000000 0.000001 -0.000004 -4.572836 3.816023 -88.985023 -1.103782 -0.672748 -62.736271 -0.092963 1.184902 -72.373825 -0.000000 -0.000001 0.000005 -5.648771 2.132494 -84.129113 -0.067043 -4.904665 -77.020669 1.500867 0.512239 -67.476217 0.000000 -0.000000 0.000009 -3.416427 -7.981940 -79.282848 -0.002112 -4.390994 -67.547873 1.840387 0.649935 -70.135101 -0.000000 0.000001 0.000001 2.607431 -0.938523 2.954962 -20.744949 -21.250691 48.449445 25.318031 13.123911 0.956578 0.112489 2.179045 -0.352418 24.918388 -21.323361 30.343044 9.041935 8.262099 -18.001792 -16.163289 -18.864465 -12.495300 -0.000001 0.000000 0.000002 -0.474272 -2.919425 60.500593 0.012912 4.392340 66.537948 1.919200 -0.429140 59.456687 -0.000001 0.000000 0.000001 -1.009684 -0.055778 68.486232 -0.075617 4.901456 84.642429 0.925267 -1.348343 32.367461 -0.000002 0.000000 -0.000001 1.132381 -4.703436 79.299111 -0.763801 1.156214 74.262871 -0.075728 -1.186055 41.400054 -0.000003 0.000003 -0.000005 -3.621156 0.151853 86.459014 -0.026844 0.056532 54.658097 0.001250 0.034612 27.537427 0.000002 0.000002 0.000001 -63.426168 -13.918112 44.059471 64.055638 -25.109227 -3.870991 -9.261141 7.510767 -26.811286 -0.801254 -3.276659 3.900695 0.000000 -0.000000 0.000001 -24.332877 -20.130202 -65.423500 3.174986 19.220140 3.926463 4.846870 -9.328999 51.128522 -1.605756 4.428075 16.238498 0.000000 0.000000 0.000001 
